<?xml version="1.0" encoding="utf-8"?>
<!-- Generator: Adobe Illustrator 25.0.0, SVG Export Plug-In . SVG Version: 6.00 Build 0)  -->
<svg version="1.1" id="_x2018_ëîé_x5F_1" xmlns="http://www.w3.org/2000/svg" xmlns:xlink="http://www.w3.org/1999/xlink"
	 x="0px" y="0px" viewBox="0 0 72.46 23.07" style="enable-background:new 0 0 72.46 23.07;" xml:space="preserve">
<style type="text/css">
	.st0{fill:#FFFFFF;}
</style>
<g>
	<path class="st0" d="M0,12.94c0,0,0.17,0.17,0.49,0.49C0.82,13.74,1.3,14.2,2,14.68c1.37,0.98,3.58,2.07,6.43,2.63
		c2.84,0.57,6.27,0.63,9.89,0.1c3.62-0.53,7.41-1.61,11.19-2.91c3.78-1.29,7.59-2.72,11.37-3.82c3.77-1.11,7.52-1.81,10.92-1.94
		c3.4-0.14,6.43,0.28,8.69,0.94c2.28,0.64,3.77,1.45,4.39,1.78c2.09,1.13,3.7,2.54,4.87,3.92c1.16,1.4,1.89,2.77,2.28,3.93
		c0.77,2.35,0.4,3.66-0.07,3.75c-0.54,0.12-1.18-0.87-2.37-2.48c-1.2-1.59-3.09-3.84-6.38-5.89c-0.51-0.3-1.7-1.05-3.59-1.71
		c-1.9-0.67-4.53-1.23-7.65-1.28c-3.12-0.06-6.69,0.39-10.4,1.25c-3.72,0.85-7.59,2.08-11.49,3.17c-3.89,1.1-7.85,2.02-11.6,2.36
		c-3.75,0.35-7.28,0.1-10.16-0.64c-2.89-0.73-5.08-1.97-6.41-3.03c-0.68-0.52-1.14-1.01-1.46-1.33C0.16,13.13,0,12.94,0,12.94z"/>
	<path class="st0" d="M52.63,9.38c-0.18-0.74-0.69-1.84-1.75-2.69c-0.27-0.2-0.53-0.41-0.88-0.57c-0.17-0.08-0.34-0.16-0.52-0.25
		c-0.18-0.08-0.36-0.11-0.55-0.17c-0.19-0.05-0.38-0.11-0.57-0.14c-0.19-0.02-0.39-0.04-0.59-0.06c-0.4-0.06-0.79,0-1.19,0
		c-1.6,0.14-3.19,0.76-4.66,1.71c-0.72,0.49-1.43,1.06-2.02,1.77c-0.61,0.68-1.12,1.53-1.4,2.48c-0.14,0.41-0.18,0.86-0.21,1.3
		c-0.01,0.43,0.06,0.82,0.09,1.23c0.03,0.4,0.19,0.8,0.28,1.2c0.09,0.4,0.32,0.76,0.48,1.14c0.76,1.49,2.19,2.57,3.72,3.08
		c1.54,0.52,3.19,0.55,4.74,0.24c1.56-0.31,3.03-0.95,4.34-1.82c1.82-1.22,3.27-2.99,3.95-4.98c0.38-0.98,0.51-2.03,0.54-3.05
		c-0.01-0.26-0.04-0.51-0.06-0.77c-0.01-0.26-0.05-0.51-0.12-0.75l-0.18-0.74l-0.29-0.7c-0.8-1.89-2.5-3.14-4.2-3.81
		c-0.44-0.14-0.86-0.35-1.3-0.43c-0.44-0.09-0.88-0.19-1.32-0.28c-0.45-0.04-0.9-0.08-1.34-0.1c-0.44,0.03-0.88,0.03-1.31,0.08
		c-1.72,0.2-3.29,0.73-4.75,1.34c-1.46,0.61-2.82,1.31-4.09,2.04c-2.55,1.47-4.79,3.03-6.87,4.46c-8.28,5.74-15.5,7.58-20.42,7.35
		c-1.24-0.05-2.33-0.23-3.29-0.47c-0.95-0.26-1.78-0.55-2.47-0.89c-1.4-0.65-2.29-1.35-2.93-1.85c-0.63-0.52-0.98-0.88-1.19-1.09
		C0.07,13.01,0,12.94,0,12.94s0.06,0.07,0.26,0.3c0.19,0.23,0.53,0.61,1.13,1.16c0.62,0.53,1.5,1.28,2.9,1.98
		c0.7,0.36,1.53,0.68,2.5,0.97c0.98,0.27,2.09,0.47,3.36,0.56c5.04,0.34,12.42-1.43,20.85-7.16c2.1-1.42,4.33-2.94,6.85-4.37
		c1.26-0.71,2.59-1.38,4.01-1.97c1.42-0.59,2.94-1.07,4.54-1.26c0.4-0.05,0.8-0.04,1.21-0.07c0.4,0.01,0.8,0.06,1.21,0.09
		c0.41,0.09,0.81,0.18,1.23,0.27c0.42,0.08,0.79,0.27,1.2,0.4c1.55,0.62,3.03,1.73,3.71,3.36l0.26,0.61l0.15,0.65l0.08,0.33
		l0.03,0.34c0.02,0.23,0.04,0.45,0.05,0.68c-0.03,0.91-0.15,1.85-0.5,2.74c-0.63,1.81-1.92,3.38-3.61,4.52
		c-1.22,0.8-2.58,1.38-4,1.63c-1.41,0.25-2.88,0.17-4.17-0.33c-1.29-0.49-2.38-1.42-2.91-2.63c-0.1-0.32-0.27-0.6-0.32-0.93
		c-0.05-0.33-0.16-0.64-0.16-0.98c0-0.33-0.03-0.68,0-0.99c0.05-0.29,0.08-0.58,0.21-0.86c0.24-0.64,0.66-1.24,1.19-1.74
		c0.5-0.52,1.11-0.94,1.73-1.29c1.25-0.68,2.59-1.08,3.73-1.09c0.28,0.02,0.56-0.01,0.8,0.05c0.12,0.02,0.25,0.04,0.37,0.06
		C48,7.99,48.1,8.04,48.21,8.07c0.1,0.04,0.21,0.06,0.3,0.11c0.09,0.05,0.17,0.1,0.25,0.15c0.17,0.07,0.32,0.22,0.47,0.33
		c0.54,0.49,0.74,1.01,0.84,1.37c0.23,0.89,0.01,1.94-0.44,2.72c-0.45,0.8-1.09,1.32-1.69,1.56c-0.61,0.24-1.23,0.21-1.7,0.16
		c-0.47-0.04-0.79-0.09-0.9,0.07c-0.1,0.14,0.01,0.47,0.46,0.86c0.43,0.38,1.29,0.84,2.49,0.75c1.18-0.09,2.5-0.83,3.37-2.04
		C52.52,12.92,53.08,11.21,52.63,9.38z"/>
	<path class="st0" d="M31.71,2.8c-0.34,0.69-1.26,2.68-2.67,4.55c-1.22,1.64-2.78,3.11-4.55,4.28c-2.48,1.63-4.94,2.68-7.17,3.36
		c-2.23,0.68-4.26,0.98-6.03,1.04c-0.89,0.06-1.7-0.02-2.46-0.05c-0.75-0.1-1.45-0.17-2.08-0.31c-0.62-0.16-1.21-0.26-1.72-0.43
		c-0.51-0.17-0.97-0.33-1.39-0.47c-0.81-0.35-1.44-0.64-1.94-0.87c-0.48-0.27-0.82-0.47-1.08-0.61C0.13,13,0,12.94,0,12.94
		s0.1,0.09,0.58,0.42c0.24,0.17,0.57,0.4,1.03,0.71c0.48,0.27,1.1,0.61,1.91,1c0.42,0.16,0.88,0.35,1.39,0.55
		c0.51,0.2,1.11,0.32,1.74,0.51C7.29,16.29,8,16.4,8.77,16.52c0.78,0.06,1.62,0.15,2.53,0.11c1.82-0.02,3.92-0.29,6.22-0.97
		c2.3-0.67,4.82-1.72,7.39-3.39c1.83-1.2,3.55-2.54,5.15-4.01c1.83-1.66,3.23-3.67,3.61-4.45c0.49-0.92,0.72-1.85,0.77-2.55
		c0.02-0.71-0.12-1.17-0.41-1.25C33.42-0.14,32.57,1.18,31.71,2.8z"/>
	<path class="st0" d="M26.3,4.11c-0.15,0.27-0.31,0.86-0.7,1.51c-0.18,0.34-0.37,0.71-0.57,1.1c-0.25,0.37-0.51,0.76-0.78,1.15
		c-0.12,0.17-0.23,0.35-0.36,0.52l-0.42,0.47l-0.88,0.94l-1,0.82c-0.34,0.27-0.68,0.54-1.07,0.75c-2.05,1.33-4.11,2.08-5.96,2.58
		c-0.47,0.12-0.92,0.23-1.35,0.34c-0.44,0.07-0.87,0.13-1.29,0.2c-0.83,0.16-1.61,0.17-2.34,0.21c-0.73,0.07-1.4,0-2.03-0.02
		c-0.31-0.01-0.61-0.03-0.9-0.04c-0.29-0.04-0.56-0.09-0.82-0.13c-0.53-0.08-1.01-0.15-1.44-0.22c-0.43-0.11-0.82-0.21-1.17-0.31
		c-0.35-0.09-0.67-0.17-0.95-0.24c-0.28-0.09-0.51-0.19-0.73-0.26c-0.43-0.15-0.74-0.26-0.96-0.35C0.11,12.97,0,12.94,0,12.94
		S0.1,13,0.52,13.22c0.22,0.11,0.52,0.25,0.93,0.45c0.21,0.1,0.44,0.21,0.71,0.33c0.28,0.09,0.59,0.19,0.94,0.31
		c0.35,0.11,0.74,0.24,1.17,0.38c0.44,0.09,0.93,0.19,1.46,0.29c0.27,0.05,0.55,0.1,0.84,0.16c0.3,0.02,0.6,0.05,0.92,0.08
		c0.64,0.04,1.33,0.14,2.09,0.09c0.75-0.02,1.56-0.01,2.42-0.16c0.43-0.06,0.87-0.12,1.33-0.18c0.45-0.11,0.92-0.22,1.4-0.33
		c1.91-0.49,4.05-1.25,6.19-2.61c0.4-0.22,0.77-0.48,1.13-0.74l1.12-0.76l1.05-0.85l0.54-0.42c0.18-0.14,0.33-0.31,0.5-0.46
		c0.38-0.36,0.75-0.71,1.1-1.04c0.31-0.38,0.61-0.75,0.88-1.07c0.57-0.65,0.86-1.28,1.03-1.6c0.18-0.4,0.37-0.77,0.43-1.15
		c0.07-0.38,0.1-0.72,0.09-1.02c-0.02-0.59-0.18-0.98-0.48-1.05c-0.3-0.07-0.66,0.17-1.01,0.58c-0.17,0.21-0.34,0.46-0.49,0.75
		C26.67,3.47,26.45,3.77,26.3,4.11z"/>
	<path class="st0" d="M38.58,19.1c-0.15-0.29-0.5-0.81-1.04-1.33c-0.54-0.52-1.28-1.03-2.1-1.37c-1.43-0.6-2.92-0.82-4.4-0.9
		c-2.08-0.09-3.87,0.32-5.4,0.68c-1.54,0.38-2.85,0.75-4.01,1c-2.32,0.52-3.99,0.74-5.15,0.9c-1.17,0.14-1.85,0.22-2.23,0.27
		c-0.38,0.05-0.47,0.07-0.47,0.07s0.09,0.02,0.48,0.03c0.39,0.01,1.07,0.03,2.26-0.03c1.19-0.07,2.88-0.21,5.25-0.65
		c1.19-0.22,2.53-0.56,4.05-0.9c1.52-0.33,3.26-0.69,5.2-0.59c1.38,0.07,2.75,0.5,3.74,1.31c0.56,0.45,1.01,0.99,1.3,1.45
		c0.3,0.47,0.46,0.86,0.56,1.05c0.24,0.47,0.47,0.87,0.72,1.2c0.25,0.32,0.51,0.57,0.82,0.58c0.29,0.01,0.6-0.28,0.72-0.8
		C39.01,20.56,38.94,19.8,38.58,19.1z"/>
	<path class="st0" d="M18.11,7.19C18,7.36,17.86,7.74,17.65,8.2c-0.12,0.22-0.26,0.47-0.4,0.72c-0.07,0.13-0.14,0.27-0.22,0.41
		c-0.09,0.13-0.18,0.25-0.28,0.38c-0.16,0.23-0.33,0.45-0.51,0.68c-0.19,0.21-0.41,0.4-0.62,0.59c-0.41,0.41-0.93,0.7-1.43,1.01
		c-1.46,0.77-2.88,1.19-4.15,1.46c-1.28,0.22-2.42,0.34-3.42,0.34c-1.99,0.02-3.4-0.2-4.37-0.38c-0.98-0.17-1.53-0.34-1.85-0.4
		C0.08,12.95,0,12.94,0,12.94s0.07,0.04,0.37,0.17c0.3,0.12,0.83,0.38,1.81,0.63c0.97,0.28,2.39,0.59,4.44,0.65
		c1.03,0.04,2.21-0.04,3.55-0.24c1.33-0.26,2.83-0.67,4.38-1.48c0.54-0.32,1.11-0.58,1.62-0.94l0.8-0.5
		c0.25-0.19,0.5-0.37,0.76-0.56c0.15-0.11,0.29-0.21,0.44-0.32c0.13-0.12,0.26-0.24,0.38-0.36c0.25-0.24,0.49-0.47,0.7-0.68
		c0.39-0.45,0.66-0.85,0.79-1.07c0.08-0.13,0.14-0.26,0.2-0.39c0.04-0.14,0.08-0.27,0.1-0.4c0.05-0.26,0.07-0.51,0.05-0.72
		C20.37,6.3,20.2,6,19.91,5.9c-0.29-0.1-0.63,0.01-0.95,0.25c-0.16,0.12-0.31,0.27-0.45,0.45c-0.07,0.09-0.13,0.19-0.19,0.29
		C18.24,6.98,18.18,7.08,18.11,7.19z"/>
</g>
</svg>
