<?xml version="1.0" encoding="utf-8"?>
<!-- Generator: Adobe Illustrator 25.0.0, SVG Export Plug-In . SVG Version: 6.00 Build 0)  -->
<svg version="1.1" id="_x2018_ëîé_x5F_1" xmlns="http://www.w3.org/2000/svg" xmlns:xlink="http://www.w3.org/1999/xlink"
	 x="0px" y="0px" viewBox="0 0 72.5 23.1" style="enable-background:new 0 0 72.5 23.1;" xml:space="preserve">
<style type="text/css">
	.st0{fill:#FFD7AC;}
</style>
<g>
	<path class="st0" d="M72.5,12.9c0,0-0.2,0.2-0.5,0.5c-0.3,0.3-0.8,0.8-1.5,1.2c-1.4,1-3.6,2.1-6.4,2.6c-2.8,0.6-6.3,0.6-9.9,0.1
		c-3.6-0.5-7.4-1.6-11.2-2.9c-3.8-1.3-7.6-2.7-11.4-3.8c-3.8-1.1-7.5-1.8-10.9-1.9C17.3,8.6,14.2,9,12,9.7c-2.3,0.6-3.8,1.4-4.4,1.8
		c-2.1,1.1-3.7,2.6-4.9,3.9c-1.2,1.4-1.9,2.8-2.3,3.9C-0.3,21.7,0,23,0.5,23.1c0.5,0.1,1.2-0.9,2.4-2.5C4.1,19,6,16.7,9.3,14.7
		c0.5-0.3,1.7-1.1,3.6-1.7c1.9-0.7,4.5-1.2,7.6-1.3c3.1-0.1,6.7,0.4,10.4,1.2c3.7,0.9,7.6,2.1,11.5,3.2c3.9,1.1,7.8,2,11.6,2.4
		c3.8,0.4,7.3,0.1,10.2-0.6c2.9-0.7,5.1-2,6.4-3c0.7-0.5,1.1-1,1.5-1.3C72.3,13.1,72.5,12.9,72.5,12.9z"/>
	<path class="st0" d="M19.8,9.4c0.2-0.7,0.7-1.8,1.8-2.7c0.3-0.2,0.5-0.4,0.9-0.6C22.6,6,22.8,6,23,5.9c0.2-0.1,0.4-0.1,0.5-0.2
		c0.2-0.1,0.4-0.1,0.6-0.1c0.2,0,0.4,0,0.6-0.1c0.4-0.1,0.8,0,1.2,0c1.6,0.1,3.2,0.8,4.7,1.7c0.7,0.5,1.4,1.1,2,1.8
		c0.6,0.7,1.1,1.5,1.4,2.5c0.1,0.4,0.2,0.9,0.2,1.3c0,0.4-0.1,0.8-0.1,1.2c0,0.4-0.2,0.8-0.3,1.2s-0.3,0.8-0.5,1.1
		c-0.8,1.5-2.2,2.6-3.7,3.1c-1.5,0.5-3.2,0.5-4.7,0.2c-1.6-0.3-3-1-4.3-1.8c-1.8-1.2-3.3-3-4-5c-0.4-1-0.5-2-0.5-3.1
		c0-0.3,0-0.5,0.1-0.8c0-0.3,0-0.5,0.1-0.8l0.2-0.7l0.3-0.7C17.5,5,19.2,3.7,20.9,3c0.4-0.1,0.9-0.3,1.3-0.4
		c0.4-0.1,0.9-0.2,1.3-0.3c0.5,0,0.9-0.1,1.3-0.1c0.4,0,0.9,0,1.3,0.1c1.7,0.2,3.3,0.7,4.8,1.3s2.8,1.3,4.1,2c2.5,1.5,4.8,3,6.9,4.5
		c8.3,5.7,15.5,7.6,20.4,7.4c1.2,0,2.3-0.2,3.3-0.5c0.9-0.3,1.8-0.5,2.5-0.9c1.4-0.6,2.3-1.4,2.9-1.9c0.6-0.5,1-0.9,1.2-1.1
		c0.2-0.2,0.3-0.3,0.3-0.3s-0.1,0.1-0.3,0.3c-0.2,0.2-0.5,0.6-1.1,1.2c-0.6,0.5-1.5,1.3-2.9,2c-0.7,0.4-1.5,0.7-2.5,1
		c-1,0.3-2.1,0.5-3.4,0.6c-5,0.3-12.4-1.4-20.8-7.2c-2.1-1.4-4.3-2.9-6.8-4.4c-1.2-0.7-2.6-1.4-4-1.9s-2.9-1.1-4.5-1.3
		c-0.4,0-0.8,0-1.2-0.1c-0.4,0-0.8,0.1-1.2,0.1c-0.4,0.1-0.8,0.2-1.2,0.3c-0.4,0.1-0.8,0.3-1.2,0.4c-1.5,0.6-3,1.7-3.7,3.4l-0.3,0.6
		l-0.1,0.7L17,8.8l0,0.3c0,0.2,0,0.4,0,0.7c0,0.9,0.1,1.9,0.5,2.7c0.6,1.8,1.9,3.4,3.6,4.5c1.2,0.8,2.6,1.4,4,1.6
		c1.4,0.2,2.9,0.2,4.2-0.3c1.3-0.5,2.4-1.4,2.9-2.6c0.1-0.3,0.3-0.6,0.3-0.9s0.2-0.6,0.2-1c0-0.3,0-0.7,0-1c0-0.3-0.1-0.6-0.2-0.9
		c-0.2-0.6-0.7-1.2-1.2-1.7c-0.5-0.5-1.1-0.9-1.7-1.3c-1.2-0.7-2.6-1.1-3.7-1.1c-0.3,0-0.6,0-0.8,0.1c-0.1,0-0.2,0-0.4,0.1
		S24.4,8,24.3,8.1c-0.1,0-0.2,0.1-0.3,0.1c-0.1,0.1-0.2,0.1-0.2,0.1c-0.2,0.1-0.3,0.2-0.5,0.3c-0.5,0.5-0.7,1-0.8,1.4
		c-0.2,0.9,0,1.9,0.4,2.7c0.5,0.8,1.1,1.3,1.7,1.6c0.6,0.2,1.2,0.2,1.7,0.2c0.5,0,0.8-0.1,0.9,0.1c0.1,0.1,0,0.5-0.5,0.9
		c-0.4,0.4-1.3,0.8-2.5,0.7c-1.2-0.1-2.5-0.8-3.4-2C19.9,12.9,19.4,11.2,19.8,9.4z"/>
	<path class="st0" d="M40.8,2.8c0.3,0.7,1.3,2.7,2.7,4.6c1.2,1.6,2.8,3.1,4.5,4.3c2.5,1.6,4.9,2.7,7.2,3.4c2.2,0.7,4.3,1,6,1
		c0.9,0.1,1.7,0,2.5-0.1c0.8-0.1,1.4-0.2,2.1-0.3c0.6-0.2,1.2-0.3,1.7-0.4s1-0.3,1.4-0.5c0.8-0.4,1.4-0.6,1.9-0.9
		c0.5-0.3,0.8-0.5,1.1-0.6c0.5-0.3,0.6-0.3,0.6-0.3s-0.1,0.1-0.6,0.4c-0.2,0.2-0.6,0.4-1,0.7c-0.5,0.3-1.1,0.6-1.9,1
		c-0.4,0.2-0.9,0.4-1.4,0.6s-1.1,0.3-1.7,0.5c-0.6,0.2-1.3,0.3-2.1,0.4c-0.8,0.1-1.6,0.1-2.5,0.1c-1.8,0-3.9-0.3-6.2-1
		c-2.3-0.7-4.8-1.7-7.4-3.4c-1.8-1.2-3.5-2.5-5.2-4c-1.8-1.7-3.2-3.7-3.6-4.4C38.3,2.9,38.1,2,38,1.3c0-0.7,0.1-1.2,0.4-1.2
		C39-0.1,39.9,1.2,40.8,2.8z"/>
	<path class="st0" d="M46.2,4.1c0.2,0.3,0.3,0.9,0.7,1.5C47,6,47.2,6.3,47.4,6.7c0.2,0.4,0.5,0.8,0.8,1.2c0.1,0.2,0.2,0.4,0.4,0.5
		L49,8.9l0.9,0.9l1,0.8c0.3,0.3,0.7,0.5,1.1,0.8c2,1.3,4.1,2.1,6,2.6c0.5,0.1,0.9,0.2,1.3,0.3c0.4,0.1,0.9,0.1,1.3,0.2
		c0.8,0.2,1.6,0.2,2.3,0.2c0.7,0.1,1.4,0,2,0c0.3,0,0.6,0,0.9,0c0.3,0,0.6-0.1,0.8-0.1c0.5-0.1,1-0.1,1.4-0.2
		c0.4-0.1,0.8-0.2,1.2-0.3c0.3-0.1,0.7-0.2,0.9-0.2c0.3-0.1,0.5-0.2,0.7-0.3c0.4-0.1,0.7-0.3,1-0.4c0.4-0.2,0.6-0.2,0.6-0.2
		s-0.1,0.1-0.5,0.3c-0.2,0.1-0.5,0.2-0.9,0.4c-0.2,0.1-0.4,0.2-0.7,0.3c-0.3,0.1-0.6,0.2-0.9,0.3c-0.3,0.1-0.7,0.2-1.2,0.4
		c-0.4,0.1-0.9,0.2-1.5,0.3c-0.3,0.1-0.6,0.1-0.8,0.2c-0.3,0-0.6,0.1-0.9,0.1c-0.6,0-1.3,0.1-2.1,0.1c-0.8,0-1.6,0-2.4-0.2
		C60,15.1,59.6,15,59.1,15c-0.5-0.1-0.9-0.2-1.4-0.3c-1.9-0.5-4-1.2-6.2-2.6c-0.4-0.2-0.8-0.5-1.1-0.7l-1.1-0.8l-1-0.9l-0.5-0.4
		c-0.2-0.1-0.3-0.3-0.5-0.5c-0.4-0.4-0.8-0.7-1.1-1c-0.3-0.4-0.6-0.8-0.9-1.1c-0.6-0.7-0.9-1.3-1-1.6c-0.2-0.4-0.4-0.8-0.4-1.2
		c-0.1-0.4-0.1-0.7-0.1-1c0-0.6,0.2-1,0.5-1c0.3-0.1,0.7,0.2,1,0.6c0.2,0.2,0.3,0.5,0.5,0.8S46,3.8,46.2,4.1z"/>
	<path class="st0" d="M33.9,19.1c0.2-0.3,0.5-0.8,1-1.3s1.3-1,2.1-1.4c1.4-0.6,2.9-0.8,4.4-0.9c2.1-0.1,3.9,0.3,5.4,0.7
		c1.5,0.4,2.8,0.8,4,1c2.3,0.5,4,0.7,5.2,0.9c1.2,0.1,1.8,0.2,2.2,0.3c0.4,0,0.5,0.1,0.5,0.1s-0.1,0-0.5,0s-1.1,0-2.3,0
		c-1.2-0.1-2.9-0.2-5.2-0.6c-1.2-0.2-2.5-0.6-4-0.9c-1.5-0.3-3.3-0.7-5.2-0.6c-1.4,0.1-2.8,0.5-3.7,1.3c-0.6,0.5-1,1-1.3,1.5
		c-0.3,0.5-0.5,0.9-0.6,1c-0.2,0.5-0.5,0.9-0.7,1.2c-0.2,0.3-0.5,0.6-0.8,0.6c-0.3,0-0.6-0.3-0.7-0.8C33.5,20.6,33.5,19.8,33.9,19.1
		z"/>
	<path class="st0" d="M54.3,7.2c0.1,0.2,0.2,0.6,0.5,1c0.1,0.2,0.3,0.5,0.4,0.7c0.1,0.1,0.1,0.3,0.2,0.4c0.1,0.1,0.2,0.2,0.3,0.4
		c0.2,0.2,0.3,0.4,0.5,0.7c0.2,0.2,0.4,0.4,0.6,0.6c0.4,0.4,0.9,0.7,1.4,1c1.5,0.8,2.9,1.2,4.2,1.5c1.3,0.2,2.4,0.3,3.4,0.3
		c2,0,3.4-0.2,4.4-0.4c1-0.2,1.5-0.3,1.8-0.4c0.3-0.1,0.4-0.1,0.4-0.1s-0.1,0-0.4,0.2c-0.3,0.1-0.8,0.4-1.8,0.6
		c-1,0.3-2.4,0.6-4.4,0.6c-1,0-2.2,0-3.5-0.2c-1.3-0.3-2.8-0.7-4.4-1.5c-0.5-0.3-1.1-0.6-1.6-0.9l-0.8-0.5c-0.2-0.2-0.5-0.4-0.8-0.6
		c-0.2-0.1-0.3-0.2-0.4-0.3c-0.1-0.1-0.3-0.2-0.4-0.4c-0.2-0.2-0.5-0.5-0.7-0.7c-0.4-0.4-0.7-0.9-0.8-1.1c-0.1-0.1-0.1-0.3-0.2-0.4
		c0-0.1-0.1-0.3-0.1-0.4c0-0.3-0.1-0.5,0-0.7c0-0.4,0.2-0.7,0.5-0.8s0.6,0,1,0.2c0.2,0.1,0.3,0.3,0.5,0.4c0.1,0.1,0.1,0.2,0.2,0.3
		C54.2,7,54.3,7.1,54.3,7.2z"/>
</g>
</svg>
