<?xml version="1.0" encoding="utf-8"?>
<!-- Generator: Adobe Illustrator 25.0.0, SVG Export Plug-In . SVG Version: 6.00 Build 0)  -->
<svg version="1.1" id="_x2018_ëîé_x5F_1" xmlns="http://www.w3.org/2000/svg" xmlns:xlink="http://www.w3.org/1999/xlink"
	 x="0px" y="0px" viewBox="0 0 72.5 23.1" style="enable-background:new 0 0 72.5 23.1;" xml:space="preserve">
<style type="text/css">
	.st0{fill:#FFD7AC;}
</style>
<g>
	<path class="st0" d="M0,12.9c0,0,0.2,0.2,0.5,0.5c0.3,0.3,0.8,0.8,1.5,1.3c1.4,1,3.6,2.1,6.4,2.6c2.8,0.6,6.3,0.6,9.9,0.1
		c3.6-0.5,7.4-1.6,11.2-2.9c3.8-1.3,7.6-2.7,11.4-3.8c3.8-1.1,7.5-1.8,10.9-1.9c3.4-0.1,6.4,0.3,8.7,0.9c2.3,0.6,3.8,1.4,4.4,1.8
		c2.1,1.1,3.7,2.5,4.9,3.9c1.2,1.4,1.9,2.8,2.3,3.9c0.8,2.4,0.4,3.7-0.1,3.8c-0.5,0.1-1.2-0.9-2.4-2.5c-1.2-1.6-3.1-3.8-6.4-5.9
		c-0.5-0.3-1.7-1.1-3.6-1.7c-1.9-0.7-4.5-1.2-7.7-1.3c-3.1-0.1-6.7,0.4-10.4,1.2c-3.7,0.9-7.6,2.1-11.5,3.2c-3.9,1.1-7.9,2-11.6,2.4
		c-3.8,0.4-7.3,0.1-10.2-0.6c-2.9-0.7-5.1-2-6.4-3c-0.7-0.5-1.1-1-1.5-1.3C0.2,13.1,0,12.9,0,12.9z"/>
	<path class="st0" d="M52.6,9.4c-0.2-0.7-0.7-1.8-1.8-2.7c-0.3-0.2-0.5-0.4-0.9-0.6C49.8,6,49.7,6,49.5,5.9
		c-0.2-0.1-0.4-0.1-0.5-0.2c-0.2-0.1-0.4-0.1-0.6-0.1c-0.2,0-0.4,0-0.6-0.1c-0.4-0.1-0.8,0-1.2,0c-1.6,0.1-3.2,0.8-4.7,1.7
		c-0.7,0.5-1.4,1.1-2,1.8c-0.6,0.7-1.1,1.5-1.4,2.5c-0.1,0.4-0.2,0.9-0.2,1.3c0,0.4,0.1,0.8,0.1,1.2c0,0.4,0.2,0.8,0.3,1.2
		s0.3,0.8,0.5,1.1c0.8,1.5,2.2,2.6,3.7,3.1c1.5,0.5,3.2,0.5,4.7,0.2c1.6-0.3,3-1,4.3-1.8c1.8-1.2,3.3-3,4-5c0.4-1,0.5-2,0.5-3.1
		c0-0.3,0-0.5-0.1-0.8c0-0.3,0-0.5-0.1-0.8l-0.2-0.7l-0.3-0.7C55,5,53.3,3.7,51.6,3c-0.4-0.1-0.9-0.3-1.3-0.4
		c-0.4-0.1-0.9-0.2-1.3-0.3c-0.5,0-0.9-0.1-1.3-0.1c-0.4,0-0.9,0-1.3,0.1C44.6,2.5,43,3,41.6,3.6s-2.8,1.3-4.1,2
		c-2.5,1.5-4.8,3-6.9,4.5c-8.3,5.7-15.5,7.6-20.4,7.4c-1.2,0-2.3-0.2-3.3-0.5c-0.9-0.3-1.8-0.5-2.5-0.9c-1.4-0.6-2.3-1.4-2.9-1.9
		c-0.6-0.5-1-0.9-1.2-1.1C0.1,13,0,12.9,0,12.9s0.1,0.1,0.3,0.3c0.2,0.2,0.5,0.6,1.1,1.2c0.6,0.5,1.5,1.3,2.9,2
		c0.7,0.4,1.5,0.7,2.5,1c1,0.3,2.1,0.5,3.4,0.6c5,0.3,12.4-1.4,20.9-7.2c2.1-1.4,4.3-2.9,6.8-4.4c1.3-0.7,2.6-1.4,4-2
		c1.4-0.6,2.9-1.1,4.5-1.3c0.4,0,0.8,0,1.2-0.1c0.4,0,0.8,0.1,1.2,0.1c0.4,0.1,0.8,0.2,1.2,0.3c0.4,0.1,0.8,0.3,1.2,0.4
		c1.5,0.6,3,1.7,3.7,3.4l0.3,0.6l0.2,0.7l0.1,0.3l0,0.3c0,0.2,0,0.4,0,0.7c0,0.9-0.2,1.9-0.5,2.7c-0.6,1.8-1.9,3.4-3.6,4.5
		c-1.2,0.8-2.6,1.4-4,1.6c-1.4,0.2-2.9,0.2-4.2-0.3c-1.3-0.5-2.4-1.4-2.9-2.6c-0.1-0.3-0.3-0.6-0.3-0.9s-0.2-0.6-0.2-1
		c0-0.3,0-0.7,0-1c0-0.3,0.1-0.6,0.2-0.9c0.2-0.6,0.7-1.2,1.2-1.7c0.5-0.5,1.1-0.9,1.7-1.3c1.2-0.7,2.6-1.1,3.7-1.1
		c0.3,0,0.6,0,0.8,0.1c0.1,0,0.2,0,0.4,0.1C48,8,48.1,8,48.2,8.1c0.1,0,0.2,0.1,0.3,0.1c0.1,0.1,0.2,0.1,0.2,0.1
		c0.2,0.1,0.3,0.2,0.5,0.3c0.5,0.5,0.7,1,0.8,1.4c0.2,0.9,0,1.9-0.4,2.7c-0.5,0.8-1.1,1.3-1.7,1.6c-0.6,0.2-1.2,0.2-1.7,0.2
		c-0.5,0-0.8-0.1-0.9,0.1c-0.1,0.1,0,0.5,0.5,0.9c0.4,0.4,1.3,0.8,2.5,0.7c1.2-0.1,2.5-0.8,3.4-2C52.5,12.9,53.1,11.2,52.6,9.4z"/>
	<path class="st0" d="M31.7,2.8c-0.3,0.7-1.3,2.7-2.7,4.6c-1.2,1.6-2.8,3.1-4.6,4.3c-2.5,1.6-4.9,2.7-7.2,3.4c-2.2,0.7-4.3,1-6,1
		c-0.9,0.1-1.7,0-2.5-0.1c-0.8-0.1-1.4-0.2-2.1-0.3c-0.6-0.2-1.2-0.3-1.7-0.4s-1-0.3-1.4-0.5c-0.8-0.4-1.4-0.6-1.9-0.9
		c-0.5-0.3-0.8-0.5-1.1-0.6C0.1,13,0,12.9,0,12.9s0.1,0.1,0.6,0.4c0.2,0.2,0.6,0.4,1,0.7c0.5,0.3,1.1,0.6,1.9,1
		c0.4,0.2,0.9,0.4,1.4,0.6s1.1,0.3,1.7,0.5c0.6,0.2,1.4,0.3,2.1,0.4c0.8,0.1,1.6,0.1,2.5,0.1c1.8,0,3.9-0.3,6.2-1
		c2.3-0.7,4.8-1.7,7.4-3.4c1.8-1.2,3.5-2.5,5.1-4c1.8-1.7,3.2-3.7,3.6-4.4c0.5-0.9,0.7-1.9,0.8-2.5c0-0.7-0.1-1.2-0.4-1.2
		C33.4-0.1,32.6,1.2,31.7,2.8z"/>
	<path class="st0" d="M26.3,4.1C26.1,4.4,26,5,25.6,5.6C25.4,6,25.2,6.3,25,6.7c-0.2,0.4-0.5,0.8-0.8,1.2C24.1,8,24,8.2,23.9,8.4
		l-0.4,0.5l-0.9,0.9l-1,0.8c-0.3,0.3-0.7,0.5-1.1,0.8c-2,1.3-4.1,2.1-6,2.6c-0.5,0.1-0.9,0.2-1.4,0.3c-0.4,0.1-0.9,0.1-1.3,0.2
		c-0.8,0.2-1.6,0.2-2.3,0.2c-0.7,0.1-1.4,0-2,0c-0.3,0-0.6,0-0.9,0c-0.3,0-0.6-0.1-0.8-0.1c-0.5-0.1-1-0.1-1.4-0.2
		C4,14.2,3.6,14.1,3.2,14c-0.3-0.1-0.7-0.2-1-0.2c-0.3-0.1-0.5-0.2-0.7-0.3c-0.4-0.1-0.7-0.3-1-0.4C0.1,13,0,12.9,0,12.9
		s0.1,0.1,0.5,0.3c0.2,0.1,0.5,0.2,0.9,0.4c0.2,0.1,0.4,0.2,0.7,0.3c0.3,0.1,0.6,0.2,0.9,0.3c0.3,0.1,0.7,0.2,1.2,0.4
		c0.4,0.1,0.9,0.2,1.5,0.3C6,15,6.3,15.1,6.6,15.1c0.3,0,0.6,0.1,0.9,0.1c0.6,0,1.3,0.1,2.1,0.1c0.8,0,1.6,0,2.4-0.2
		c0.4-0.1,0.9-0.1,1.3-0.2c0.4-0.1,0.9-0.2,1.4-0.3c1.9-0.5,4-1.2,6.2-2.6c0.4-0.2,0.8-0.5,1.1-0.7l1.1-0.8l1-0.9l0.5-0.4
		c0.2-0.1,0.3-0.3,0.5-0.5c0.4-0.4,0.8-0.7,1.1-1C26.7,7.4,27,7,27.2,6.7c0.6-0.7,0.9-1.3,1-1.6c0.2-0.4,0.4-0.8,0.4-1.2
		c0.1-0.4,0.1-0.7,0.1-1c0-0.6-0.2-1-0.5-1c-0.3-0.1-0.7,0.2-1,0.6c-0.2,0.2-0.3,0.5-0.5,0.8C26.7,3.5,26.5,3.8,26.3,4.1z"/>
	<path class="st0" d="M38.6,19.1c-0.2-0.3-0.5-0.8-1-1.3s-1.3-1-2.1-1.4c-1.4-0.6-2.9-0.8-4.4-0.9c-2.1-0.1-3.9,0.3-5.4,0.7
		c-1.5,0.4-2.9,0.8-4,1c-2.3,0.5-4,0.7-5.1,0.9c-1.2,0.1-1.9,0.2-2.2,0.3c-0.4,0-0.5,0.1-0.5,0.1s0.1,0,0.5,0c0.4,0,1.1,0,2.3,0
		c1.2-0.1,2.9-0.2,5.2-0.6c1.2-0.2,2.5-0.6,4.1-0.9c1.5-0.3,3.3-0.7,5.2-0.6c1.4,0.1,2.8,0.5,3.7,1.3c0.6,0.5,1,1,1.3,1.5
		c0.3,0.5,0.5,0.9,0.6,1c0.2,0.5,0.5,0.9,0.7,1.2c0.2,0.3,0.5,0.6,0.8,0.6c0.3,0,0.6-0.3,0.7-0.8C39,20.6,38.9,19.8,38.6,19.1z"/>
	<path class="st0" d="M18.1,7.2c-0.1,0.2-0.2,0.5-0.5,1c-0.1,0.2-0.3,0.5-0.4,0.7c-0.1,0.1-0.1,0.3-0.2,0.4
		c-0.1,0.1-0.2,0.2-0.3,0.4c-0.2,0.2-0.3,0.4-0.5,0.7c-0.2,0.2-0.4,0.4-0.6,0.6c-0.4,0.4-0.9,0.7-1.4,1c-1.5,0.8-2.9,1.2-4.2,1.5
		c-1.3,0.2-2.4,0.3-3.4,0.3c-2,0-3.4-0.2-4.4-0.4c-1-0.2-1.5-0.3-1.9-0.4C0.1,12.9,0,12.9,0,12.9s0.1,0,0.4,0.2
		c0.3,0.1,0.8,0.4,1.8,0.6c1,0.3,2.4,0.6,4.4,0.6c1,0,2.2,0,3.6-0.2c1.3-0.3,2.8-0.7,4.4-1.5c0.5-0.3,1.1-0.6,1.6-0.9l0.8-0.5
		c0.2-0.2,0.5-0.4,0.8-0.6c0.1-0.1,0.3-0.2,0.4-0.3c0.1-0.1,0.3-0.2,0.4-0.4c0.2-0.2,0.5-0.5,0.7-0.7c0.4-0.4,0.7-0.9,0.8-1.1
		c0.1-0.1,0.1-0.3,0.2-0.4c0-0.1,0.1-0.3,0.1-0.4c0-0.3,0.1-0.5,0-0.7c0-0.4-0.2-0.7-0.5-0.8s-0.6,0-1,0.2c-0.2,0.1-0.3,0.3-0.5,0.4
		c-0.1,0.1-0.1,0.2-0.2,0.3C18.2,7,18.2,7.1,18.1,7.2z"/>
</g>
</svg>
